<?xml version="1.0" encoding="UTF-8"?>
<svg id="Layer_1" xmlns="http://www.w3.org/2000/svg" version="1.1" viewBox="0 0 1920 1080">
  <!-- Generator: Adobe Illustrator 29.8.2, SVG Export Plug-In . SVG Version: 2.1.1 Build 3)  -->
  <defs>
    <style>
      .st0 {
        fill: #fafff5;
      }

      .st1 {
        fill: #729c77;
      }

      .st2 {
        fill: #417751;
      }

      .st3 {
        fill: #b8ceb3;
      }

      .st4 {
        fill: #eaf3e5;
      }

      .st5 {
        fill: #a6c1a3;
      }

      .st6 {
        fill: #62906a;
      }

      .st7 {
        fill: #d9e6d4;
      }

      .st8 {
        fill: #ffbc91;
      }

      .st9 {
        fill: #c9dac4;
      }

      .st10 {
        fill: #51845c;
      }

      .st11 {
        fill: #95b593;
      }

      .st12 {
        fill: #83a984;
      }
    </style>
  </defs>
  <path class="st8" d="M734.57,34.37c-28.69,61.72-23.27,100.42,16.28,116.09,59.31,23.51,200.35,32.91,259.3,83.91,58.95,50.99,238.7,11.57,269.44-75.95,30.74-87.52,86.09-222.42-205.77-222.42-194.58,0-307.65,32.79-339.24,98.37h0Z"/>
  <path class="st0" d="M312.35,156.24c19.44,172.83,97.2,281.18,233.25,325.06,204.08,65.82,614.17,92.15,861.68,234.94,247.5,142.78,687.06,32.4,631.65-212.66-55.41-245.06-118.51-622.78-935.72-622.78-544.81,0-808.42,91.81-790.85,275.44h0Z"/>
  <path class="st4" d="M344.02,146.09c9.11,163.57,76.88,266.12,203.28,307.65,189.61,62.3,576.32,87.21,802.89,222.35,226.56,135.13,648.51,30.67,609.24-201.27-39.27-231.93-78.69-589.42-852.13-589.42-515.63,0-770.05,86.89-763.28,260.69h0Z"/>
  <path class="st7" d="M376.49,135.93c.23,154.31,58.9,251.06,176.03,290.24,175.69,58.77,539.23,82.28,746.06,209.77,206.82,127.48,610.23,28.93,585.05-189.87-25.18-218.81-44.07-556.06-773.72-556.06-486.44,0-730.91,81.98-733.42,245.93h0Z"/>
  <path class="st9" d="M409.69,125.77c-7.34,145.05,43.08,235.99,151.25,272.82,162.27,55.24,502.85,77.34,691.03,197.18,188.17,119.84,572.2,27.19,559.25-178.48-12.95-205.68-14.19-522.69-700.07-522.69-457.25,0-691.07,77.06-701.46,231.17h0Z"/>
  <path class="st3" d="M443.57,115.62c-13.7,135.79,29.23,220.93,128.77,255.41,149.31,51.72,467.12,72.4,637.64,184.59,170.52,112.19,534.4,25.46,531.95-167.09-2.45-192.55,11.3-489.33-630.8-489.33-428.07,0-650.58,72.14-667.56,216.42h0Z"/>
  <path class="st5" d="M478.08,105.46c-18.92,126.53,17.21,205.87,108.4,237.99,136.79,48.19,431.98,67.47,585.8,172.01,153.81,104.54,496.81,23.72,503.26-155.7,6.45-179.42,32.72-455.97-565.6-455.97-398.88,0-609.5,67.22-631.86,201.66h0Z"/>
  <path class="st11" d="M513.18,95.31c-23.09,117.28,6.92,190.8,90.03,220.58,124.66,44.67,397.41,62.53,535.38,159.42,137.97,96.89,459.42,21.99,473.27-144.3,13.85-166.29,50.33-422.6-504.2-422.6-369.69,0-567.85,62.3-594.47,186.91h0Z"/>
  <path class="st12" d="M548.83,85.15c-26.26,108.02-1.76,175.74,73.52,203.16,112.92,41.14,363.38,57.59,486.33,146.84,122.95,89.24,422.21,20.25,442.05-132.91,19.84-153.16,64.37-389.24-446.39-389.24-340.51,0-525.67,57.38-555.51,172.15h0Z"/>
  <path class="st1" d="M585,75c-28.49,98.76-8.89,160.68,58.79,185.75,101.53,37.61,329.84,52.66,438.55,134.25,108.71,81.59,385.18,18.52,409.67-121.52,24.49-140.04,74.99-355.88-391.98-355.88-311.32,0-483,52.46-515.03,157.4h0Z"/>
  <path class="st6" d="M621.68,64.84c-29.82,89.5-14.57,145.61,45.76,168.34,90.49,34.09,296.79,47.72,392,121.66,95.21,73.94,348.32,16.78,376.19-110.13,27.87-126.91,82.37-322.51-340.83-322.51-282.14,0-439.84,47.55-473.12,142.64h0Z"/>
  <path class="st10" d="M658.85,54.68c-30.28,80.24-18.82,130.55,34.36,150.92,79.78,30.56,264.19,42.78,346.63,109.08,82.43,66.29,311.62,15.04,341.63-98.73,30.01-113.78,86.62-289.15-292.8-289.15-252.95,0-396.22,42.63-429.82,127.88h0Z"/>
  <path class="st2" d="M696.48,44.53c-29.9,70.98-21.71,115.49,24.55,133.51,69.39,27.03,232.05,37.85,302.41,96.49,70.35,58.64,275.08,13.31,306.04-87.34,30.96-100.65,87.84-255.79-247.8-255.79-223.76,0-352.16,37.71-385.19,113.13h0Z"/>
</svg>